<?xml version="1.0" encoding="UTF-8"?><svg id="Layer_1" xmlns="http://www.w3.org/2000/svg" viewBox="0 0 700 175.06"><defs><style>.cls-1{fill:#159bd7;}</style></defs><path class="cls-1" d="M189.69,0H0v29.16h180.22v.03c5.22,0,9.38,4.18,9.38,9.38v97.92l-.02.08c-.03,5.17-4.24,9.33-9.4,9.33H38.55c-5.18,0-9.43-4.19-9.43-9.41v-39.56c0-5.2,4.24-9.41,9.43-9.41h121.85v-29.12H29.07c-16.05,0-29.07,12.99-29.07,29.04v58.55c0,16.06,13.01,29.07,29.07,29.07h160.62c16.07,0,29.06-13.01,29.06-29.07V29.08C218.75,13.02,205.76,0,189.69,0"/><path d="M326.44,41.34l22.73,68c2.7,8.3,4.61,10.22,9.34,10.22h4.62v11.97h-49.62v-11.97h4.07c4.08,0,7.47-.54,7.47-2.02,0-1.4-.14-2.89-.68-4.94l-2.84-9.77h-27.74l-1.66,5.44c-1.48,4.75-2.03,6.76-2.03,8.67,0,2.2,4.77,2.61,8.47,2.61h3.91v11.97h-39.97v-11.97h4.63c4.76,0,6.63-1.92,9.39-10.22l22.71-68h27.21ZM297.7,90.87h19.73l-9.77-29.29h-.27l-9.68,29.29Z"/><path d="M371.01,58.08c0-3.84-.95-5.86-4.89-5.86h-6.25v-10.88h33.73v33.85c5.02-5.71,11.43-9.38,17.51-9.38,20.41,0,28.01,15.94,28.01,33.86s-7.6,33.87-28.01,33.87c-8.56,0-16.19-2.99-20.93-10.47l-3.93,8.47h-15.25V58.08ZM393.61,99.67c0,13.9,3.12,22.18,10.72,22.18s10.75-8.28,10.75-22.18-3.09-22.15-10.75-22.15-10.72,8.29-10.72,22.15"/><path d="M447.3,58.08c0-3.84-.96-5.86-4.86-5.86h-6.27v-10.88h33.72v33.85c5.05-5.71,11.43-9.38,17.54-9.38,20.4,0,28.03,15.94,28.03,33.86s-7.62,33.87-28.03,33.87c-8.56,0-16.19-2.99-20.94-10.47l-3.96,8.47h-15.23V58.08ZM469.89,99.67c0,13.9,3.16,22.18,10.75,22.18s10.73-8.28,10.73-22.18-3.11-22.15-10.73-22.15-10.75,8.29-10.75,22.15"/><path d="M592.15,99.68c0,21.78-14.83,33.87-35.08,33.87s-35.09-12.09-35.09-33.87,14.8-33.87,35.09-33.87,35.08,12.11,35.08,33.87M546.05,99.68c0,16.05,2.85,22.99,11.01,22.99s11-6.94,11-22.99-2.85-22.98-11-22.98-11.01,6.93-11.01,22.98"/><path d="M689.11,100.78v10.61c0,6.25-1.35,9.95-6.52,9.95-3.12,0-4.61-2.33-4.61-5.2v-37.4h16.69v-10.89h-16.69v-25.27h-13.49c-1.1,11.27-4.63,25.27-18.22,25.27h-21.21v-25.27h-13.45c-1.1,11.27-4.64,25.27-18.22,25.27v10.89h9.11v34.14c0,13.88,7.75,20.67,21.73,20.67,16.36,0,22.84-7.32,22.84-20.67v-12.1h-10.84v10.61c0,6.25-1.37,9.95-6.52,9.95-3.16,0-4.64-2.33-4.64-5.2v-37.4h30.36v34.14c0,13.88,7.71,20.67,21.72,20.67,16.31,0,22.86-7.32,22.86-20.67v-12.1h-10.9,0Z"/></svg>